<svg xmlns="http://www.w3.org/2000/svg" viewBox="0 0 402.78 418.64"><defs><style>.cls-1{fill:#fff;}</style></defs><g id="Layer_2" data-name="Layer 2"><g id="Layer_1-2" data-name="Layer 1"><path class="cls-1" d="M299,213.61c-1-13.78-2.21-27.35-3.53-40.54q-.72-7.19-1.49-14.22C284.69,73.33,271,0,271,0,188.21,282.25,10.9,411.11,2.11,417.63c-1.38.69-2.11,1-2.11,1,128.78-38.58,204.9-165.21,237.49-233.27,3-6.16,7.79-16.93,7.79-16.93l3-6.95,1.91,6s1,3.18,1.51,4.8q2.13,6.93,4.21,14.22c4.31,15.16,8.42,31.46,12.28,48.59q2.15,9.54,4.21,19.42a1471.57,1471.57,0,0,1,22.31,145.62c7.16-49,8.85-111.75,5.59-166.7Q299.74,223.46,299,213.61Z"/><path class="cls-1" d="M356.48,77.17l-.59.33C376.27,57.8,380,56.64,390.36,44.3q.45-6.48-2.78-9.26-16.66.47-37.74.46c-16.82,0-29.48-.15-39.66-.46,0,7.1.3,14.35,0,19h56.1c-8.15,11.53-21,16.95-38.45,39.1l-.16.08v.11a.18.18,0,0,0-.05.07c0,.1,0,.23.05.34v7.72a56.64,56.64,0,0,1,22.38-5.15c15.69,0,24.95,10,24.95,26.49,0,20.58-8.74,27.7-53.25,50.85-1.54.52-1.28,10,0,11.58,36.79-11.58,81-28.05,81-67.31C402.78,100.15,387.35,77.17,356.48,77.17Z"/><path class="cls-1" d="M264.88,256c-.42-2.81-3.09-16.35-4.16-19-31.94,21.86-55.78,44.91-75.4,62.25,0,0-55.74,54.87-55.73,58v0a.13.13,0,0,0,.14.12h.07l.25-.08c4.94-1.56,52.45-34.85,136-93.52-.23-2.11-.66-4.83-1.19-7.75Z"/><path class="cls-1" d="M299,213.61c-1-13.78-2.21-27.35-3.53-40.54q-.72-7.19-1.49-14.22C284.69,73.33,271,0,271,0,188.21,282.25,10.9,411.11,2.11,417.63c-1.38.69-2.11,1-2.11,1,128.78-38.58,204.9-165.21,237.49-233.27,3-6.16,7.79-16.93,7.79-16.93l3-6.95,1.91,6s1,3.18,1.51,4.8q2.13,6.93,4.21,14.22c4.31,15.16,8.42,31.46,12.28,48.59q2.15,9.54,4.21,19.42a1471.57,1471.57,0,0,1,22.31,145.62c7.16-49,8.85-111.75,5.59-166.7Q299.74,223.46,299,213.61Z"/><path class="cls-1" d="M264.88,256c-.42-2.81-3.09-16.35-4.16-19-31.94,21.86-55.78,44.91-75.4,62.25,0,0-55.74,54.87-55.73,58v0a.13.13,0,0,0,.14.12h.07l.25-.08c4.94-1.56,52.45-34.85,136-93.52-.23-2.11-.66-4.83-1.19-7.75Z"/><path class="cls-1" d="M356.48,77.17l-.59.33C376.27,57.8,380,56.64,390.36,44.3q.45-6.48-2.78-9.26-16.66.47-37.74.46c-16.82,0-29.48-.15-39.66-.46,0,7.1.3,14.35,0,19h56.1c-8.15,11.53-21,16.95-38.45,39.1l-.16.08v.11a.18.18,0,0,0-.05.07c0,.1,0,.23.05.34v7.72a56.64,56.64,0,0,1,22.38-5.15c15.69,0,24.95,10,24.95,26.49,0,20.58-8.74,27.7-53.25,50.85-1.54.52-1.28,10,0,11.58,36.79-11.58,81-28.05,81-67.31C402.78,100.15,387.35,77.17,356.48,77.17Z"/></g></g></svg>